Coordinates
version=1
nRows=31
nColumns=38
inDegrees=no

Units are S.I. units (second, meters, Newtons, ...)
If the header above contains a line with 'inDegrees', this indicates whether rotational values are in degrees (yes) or radians (no).

endheader
time	pelvis_tilt	pelvis_list	pelvis_rotation	pelvis_tx	pelvis_ty	pelvis_tz	hip_flexion_r	hip_adduction_r	hip_rotation_r	knee_angle_r	ankle_angle_r	subtalar_angle_r	mtp_angle_r	hip_flexion_l	hip_adduction_l	hip_rotation_l	knee_angle_l	ankle_angle_l	subtalar_angle_l	mtp_angle_l	lumbar_extension	lumbar_bending	lumbar_rotation	arm_flex_r	arm_add_r	arm_rot_r	elbow_flex_r	pro_sup_r	wrist_flex_r	wrist_dev_r	arm_flex_l	arm_add_l	arm_rot_l	elbow_flex_l	pro_sup_l	wrist_flex_l	wrist_dev_l
2.05	-3.03843	1.38409	-1.68749	0.815961	0.905832	0.967047	0.320353	-0.195019	-0.0511458	1.18695	-0.0602531	0	0	-0.132591	0.0874328	-0.313106	0.15183	-0.00976813	0	0	-0.353227	-0.0040682	0.0646844	0.219607	-0.306677	0.959407	0.336782	0.738028	0	0	0.237668	-0.159564	0.174744	0.218437	1.5708	0	0
2.06	-3.05832	1.38324	-1.66365	0.814928	0.913608	0.967846	0.327549	-0.191303	-0.0638106	1.15424	-0.0465633	0	0	-0.14683	0.0850133	-0.30891	0.144868	-0.00720264	0	0	-0.355809	0.00109566	0.0621454	0.224009	-0.30957	0.965727	0.338232	0.733507	0	0	0.242629	-0.157888	0.171195	0.2151	1.5708	0	0
2.07	-3.07693	1.38314	-1.64172	0.81397	0.921287	0.968451	0.334251	-0.187653	-0.0764155	1.11841	-0.0349101	0	0	-0.159477	0.0824886	-0.307396	0.138827	-0.0043513	0	0	-0.357437	0.00603537	0.0600317	0.228434	-0.311697	0.969608	0.338514	0.731096	0	0	0.247129	-0.156231	0.170547	0.213054	1.5708	0	0
2.08	-3.09812	1.38253	-1.61715	0.813063	0.928848	0.969043	0.337887	-0.183289	-0.0905386	1.07844	-0.0255409	0	0	-0.172182	0.079284	-0.30472	0.133609	-0.000987532	0	0	-0.359869	0.0115536	0.0579807	0.233169	-0.313362	0.971468	0.338419	0.729642	0	0	0.251678	-0.154468	0.171386	0.211862	1.5708	0	0
2.09	-3.12049	1.3812	-1.5912	0.812274	0.936455	0.969603	0.338644	-0.178299	-0.106329	1.03544	-0.0170931	0	0	-0.185139	0.075349	-0.301563	0.129388	0.00200579	0	0	-0.363257	0.0171009	0.0569573	0.237595	-0.315683	0.975341	0.339423	0.727212	0	0	0.256976	-0.152455	0.174113	0.210216	1.5708	0	0
2.1	3.13846	1.37881	-1.56258	0.81148	0.944075	0.970212	0.335654	-0.172937	-0.125238	0.988629	-0.00847057	0	0	-0.199253	0.0706785	-0.296933	0.124793	0.00503705	0	0	-0.367728	0.0234474	0.0552066	0.242384	-0.317725	0.980768	0.340017	0.723339	0	0	0.262765	-0.150121	0.177287	0.207652	1.5708	0	0
2.11	3.11775	1.37669	-1.53765	0.81078	0.951639	0.970661	0.331611	-0.168053	-0.145687	0.939638	-0.000947734	0	0	-0.212585	0.0664094	-0.291989	0.120804	0.00831089	0	0	-0.371982	0.0291145	0.0534767	0.247563	-0.319192	0.986726	0.339501	0.718676	0	0	0.268844	-0.147792	0.179896	0.204372	1.5708	0	0
2.12	3.09903	1.37442	-1.51507	0.810196	0.959182	0.970994	0.325464	-0.162856	-0.167272	0.887329	0.00567863	0	0	-0.225792	0.0622378	-0.287179	0.11729	0.0114904	0	0	-0.376621	0.0342852	0.0519994	0.253074	-0.320433	0.993935	0.338383	0.713723	0	0	0.275212	-0.145544	0.181467	0.200533	1.5708	0	0
2.13	3.08165	1.37157	-1.49417	0.809758	0.96676	0.97124	0.316532	-0.156996	-0.190262	0.831284	0.0110226	0	0	-0.23952	0.0579072	-0.282937	0.113915	0.0157311	0	0	-0.381907	0.038824	0.0514988	0.257808	-0.320585	0.994042	0.335824	0.717887	0	0	0.277886	-0.146852	0.205314	0.207486	1.5708	0	0
2.14	3.07092	1.3714	-1.48102	0.809528	0.974325	0.971043	0.310756	-0.15198	-0.212907	0.775333	0.0150887	0	0	-0.249241	0.0548188	-0.281299	0.112749	0.0215624	0	0	-0.384618	0.041563	0.0509809	0.263078	-0.32108	1.00212	0.334337	0.711573	0	0	0.284829	-0.144053	0.197506	0.201485	1.5708	0	0
2.15	3.06054	1.37071	-1.46795	0.809374	0.981878	0.970766	0.30248	-0.146126	-0.23682	0.716138	0.0180323	0	0	-0.259578	0.0515978	-0.27885	0.111327	0.0278135	0	0	-0.388039	0.0441778	0.0502212	0.268215	-0.321532	1.00936	0.333315	0.705458	0	0	0.291079	-0.142347	0.194215	0.19689	1.5708	0	0
2.16	3.05245	1.37039	-1.45758	0.809412	0.989494	0.970294	0.293692	-0.139602	-0.260595	0.655836	0.0204191	0	0	-0.269614	0.0487064	-0.277465	0.109888	0.0347861	0	0	-0.39104	0.0458754	0.0494029	0.273107	-0.32171	1.01584	0.332785	0.699541	0	0	0.296283	-0.141739	0.193088	0.194616	1.5708	0	0
2.17	3.04774	1.37092	-1.45127	0.80968	0.997141	0.969624	0.285358	-0.132277	-0.282713	0.59467	0.0240616	0	0	-0.278737	0.0464896	-0.276766	0.108617	0.0417402	0	0	-0.393295	0.0463101	0.0488726	0.27774	-0.321397	1.02157	0.332227	0.694206	0	0	0.300798	-0.141951	0.193073	0.194146	1.5708	0	0
2.18	3.04695	1.37271	-1.44958	0.810187	1.00476	0.968723	0.277802	-0.123808	-0.301335	0.53197	0.0296901	0	0	-0.286296	0.0450309	-0.276278	0.108061	0.048606	0	0	-0.39459	0.045289	0.048631	0.282283	-0.320701	1.02664	0.331679	0.690306	0	0	0.305398	-0.142906	0.194392	0.19336	1.5708	0	0
2.19	3.04878	1.3757	-1.45172	0.810951	1.01242	0.96758	0.27163	-0.113968	-0.314954	0.469352	0.0350307	0	0	-0.292761	0.0442587	-0.276238	0.107747	0.0552004	0	0	-0.394758	0.0430556	0.0493054	0.286645	-0.31973	1.03111	0.330944	0.686619	0	0	0.309837	-0.144282	0.196482	0.192612	1.5708	0	0
2.2	3.0469	1.37952	-1.45171	0.811949	1.02011	0.9663	0.265301	-0.100703	-0.320491	0.404327	0.0384937	0	0	-0.29804	0.0428373	-0.277982	0.108388	0.0634129	0	0	-0.394045	0.0410988	0.0514279	0.290961	-0.319021	1.03594	0.330437	0.682195	0	0	0.31366	-0.145593	0.19844	0.193136	1.5708	0	0
2.21	3.03952	1.3831	-1.44724	0.813162	1.02795	0.965015	0.256401	-0.0836157	-0.316481	0.3353	0.0395237	0	0	-0.303328	0.0401274	-0.281887	0.110047	0.0735531	0	0	-0.393183	0.03988	0.0551274	0.294416	-0.318078	1.03595	0.32938	0.684901	0	0	0.314877	-0.148767	0.21206	0.19958	1.5708	0	0
2.22	3.03921	1.38932	-1.45033	0.81444	1.03592	0.963397	0.250432	-0.0685712	-0.307048	0.269559	0.0417893	0	0	-0.306043	0.0395362	-0.284501	0.111652	0.0829107	0	0	-0.389218	0.0369298	0.0587275	0.296861	-0.316716	1.03354	0.328098	0.690451	0	0	0.31594	-0.151498	0.220835	0.204226	1.5708	0	0
2.23	3.02295	1.39111	-1.43787	0.815915	1.04414	0.962233	0.229104	-0.0450552	-0.278461	0.183824	0.0320045	0	0	-0.313428	0.0348611	-0.290598	0.113751	0.0914793	0	0	-0.389196	0.0378097	0.0628487	0.3014	-0.319146	1.05611	0.332459	0.660072	0	0	0.320582	-0.150207	0.204158	0.197868	1.5708	0	0
2.24	3.01863	1.39493	-1.43677	0.817277	1.05263	0.960757	0.209465	-0.0272071	-0.246175	0.103636	0.0216653	0	0	-0.319365	0.0330194	-0.294363	0.115293	0.0977976	0	0	-0.386385	0.0363951	0.0664048	0.302882	-0.318419	1.05632	0.332111	0.660017	0	0	0.322148	-0.151416	0.205268	0.198041	1.5708	0	0
2.25	3.02365	1.39982	-1.44463	0.818487	1.06137	0.959044	0.193727	-0.0149732	-0.217763	0.0359545	0.0119512	0	0	-0.325042	0.033388	-0.295764	0.115968	0.104926	0	0	-0.381789	0.0336768	0.0689705	0.303463	-0.317511	1.05511	0.331761	0.660409	0	0	0.322742	-0.152354	0.205895	0.19783	1.5708	0	0
2.26	3.0345	1.40591	-1.45822	0.819563	1.07026	0.957141	0.187668	-0.00786904	-0.206191	0	0.0093804	0	0	-0.329444	0.0350006	-0.296509	0.117049	0.112203	0	0	-0.375503	0.0304014	0.0707732	0.304076	-0.317562	1.05899	0.333487	0.652832	0	0	0.32254	-0.152834	0.205741	0.196929	1.5708	0	0
2.27	3.03818	1.40592	-1.46425	0.820308	1.07864	0.955546	0.198	-0.00186177	-0.207451	0	0.0127361	0	0	-0.337398	0.039456	-0.292878	0.120114	0.116142	0	0	-0.376016	0.0301232	0.0722553	0.304693	-0.316965	1.05334	0.331863	0.665405	0	0	0.323377	-0.152221	0.206807	0.196685	1.5708	0	0
2.28	3.04348	1.40726	-1.47066	0.820969	1.08753	0.954085	0.202334	0.0017364	-0.217867	0	0.0172926	0	0	-0.345194	0.0391044	-0.295311	0.124135	0.123834	0	0	-0.374781	0.030104	0.0726273	0.305155	-0.317072	1.05258	0.331072	0.669489	0	0	0.323087	-0.151823	0.206446	0.19698	1.5708	0	0
2.29	3.04754	1.40773	-1.474	0.821352	1.09674	0.952796	0.202768	0.00499303	-0.22955	0	0.0206065	0	0	-0.353818	0.0380997	-0.296949	0.128498	0.131193	0	0	-0.373988	0.0313515	0.0713647	0.305595	-0.317985	1.05078	0.331547	0.673699	0	0	0.321675	-0.151361	0.206346	0.198309	1.5708	0	0
2.3	3.04906	1.40729	-1.47468	0.821735	1.10656	0.951687	0.199077	0.00871324	-0.23948	0	0.0214931	0	0	-0.365024	0.0367359	-0.295708	0.130482	0.134182	0	0	-0.372826	0.0334572	0.06964	0.306484	-0.321133	1.06352	0.335786	0.653512	0	0	0.319472	-0.149983	0.200435	0.197122	1.5708	0	0
2.31	3.05127	1.40607	-1.47369	0.821904	1.11668	0.950748	0.191445	0.0120183	-0.249068	0	0.0188461	0	0	-0.376379	0.0343288	-0.29474	0.133766	0.136701	0	0	-0.372181	0.0360958	0.0664152	0.304599	-0.320069	1.0458	0.332996	0.681114	0	0	0.314229	-0.151248	0.210113	0.20423	1.5708	0	0
2.32	3.06434	1.40774	-1.48212	0.822077	1.12702	0.949774	0.186004	0.0100407	-0.261561	0.00468816	0.0160014	0	0	-0.385133	0.02711	-0.301855	0.139708	0.143014	0	0	-0.368529	0.0373108	0.060836	0.303589	-0.321544	1.05172	0.333808	0.678961	0	0	0.311217	-0.150411	0.202029	0.203301	1.5708	0	0
2.33	3.06963	1.40621	-1.48294	0.822013	1.13719	0.948898	0.191062	0.00651686	-0.279977	0.0410049	0.0207256	0	0	-0.393779	0.023713	-0.304141	0.148993	0.145933	0	0	-0.368004	0.0407908	0.0544419	0.303328	-0.323603	1.05868	0.335649	0.677526	0	0	0.307413	-0.14941	0.195066	0.203269	1.5708	0	0
2.34	3.07628	1.40444	-1.48457	0.822034	1.1477	0.948045	0.195492	0.00177438	-0.299621	0.0769938	0.0311631	0	0	-0.402458	0.019948	-0.305647	0.159235	0.14778	0	0	-0.367025	0.044073	0.0471108	0.30224	-0.325257	1.06424	0.338319	0.675898	0	0	0.302615	-0.148849	0.18885	0.20314	1.5708	0	0
2.35	3.0787	1.40236	-1.48154	0.822201	1.15842	0.947319	0.195503	-0.000544105	-0.309622	0.101714	0.0384116	0	0	-0.410204	0.0143633	-0.308384	0.171913	0.148936	0	0	-0.366131	0.0480053	0.0394205	0.300734	-0.326024	1.06814	0.340223	0.67409	0	0	0.297329	-0.14862	0.182749	0.202856	1.5708	0	0
